<?xml version="1.0" encoding="UTF-8" standalone="no"?>
<!-- Created with Inkscape (http://www.inkscape.org/) -->

<svg
   xmlns:dc="http://purl.org/dc/elements/1.1/"
   xmlns:cc="http://creativecommons.org/ns#"
   xmlns:rdf="http://www.w3.org/1999/02/22-rdf-syntax-ns#"
   xmlns:svg="http://www.w3.org/2000/svg"
   xmlns="http://www.w3.org/2000/svg"
   xmlns:sodipodi="http://sodipodi.sourceforge.net/DTD/sodipodi-0.dtd"
   xmlns:inkscape="http://www.inkscape.org/namespaces/inkscape"
   width="324.83777mm"
   height="324.83777mm"
   viewBox="0 0 1151 1151"
   id="svg2"
   version="1.1"
   inkscape:version="0.91 r13725"
   sodipodi:docname="map.svg">
  <defs
     id="defs4" />
  <sodipodi:namedview
     id="base"
     pagecolor="#ffffff"
     bordercolor="#666666"
     borderopacity="1.0"
     inkscape:pageopacity="0.0"
     inkscape:pageshadow="2"
     inkscape:zoom="0.35"
     inkscape:cx="1199.4115"
     inkscape:cy="500.51783"
     inkscape:document-units="px"
     inkscape:current-layer="layer1"
     showgrid="false"
     fit-margin-top="0"
     fit-margin-left="0"
     fit-margin-right="0"
     fit-margin-bottom="0"
     inkscape:window-width="1366"
     inkscape:window-height="705"
     inkscape:window-x="-8"
     inkscape:window-y="-8"
     inkscape:window-maximized="1" />
  <metadata
     id="metadata7">
    <rdf:RDF>
      <cc:Work
         rdf:about="">
        <dc:format>image/svg+xml</dc:format>
        <dc:type
           rdf:resource="http://purl.org/dc/dcmitype/StillImage" />
        <dc:title></dc:title>
      </cc:Work>
    </rdf:RDF>
  </metadata>
  <g
     inkscape:label="Layer 1"
     inkscape:groupmode="layer"
     id="layer1"
     transform="translate(186.98827,100.42405)">
    <path
       style="fill:#000000"
       d=""
       id="path3347"
       inkscape:connector-curvature="0" />
    <path
       style="fill:#000000"
       d="m -186.98827,475.07595 0,-575.5 575.49998,0 575.5,0 0,575.5 0,575.49995 -575.5,0 -575.49998,0 0,-575.49995 z m 1000.99998,449.99998 0,-75.5 -50,0 -50,0 0,-50 0,-50 -50,0 -50,0 0,-124.5 0,-124.5 100,0 100,0 0,-249.99998 0,-250.00000214 24.5,0 24.5,0 0,374.50000214 0,374.49998 -24.5,0 -24.5,0 0,-50 0,-50 -50,0 -50,0 0,-24.5 0,-24.5 50,0 50,0 0,-25.5 0,-25.5 -75.5,0 -75.5,0 0,75.5 0,75.5 50,0 50,0 0,50 0,50 50,0 50,0 0,100 0,99.99997 25.5,0 25.5,0 0,-525.49995 0,-525.500002 -225.5,0 -225.5,0 0,450.000002 0,449.99998 -224.5,0 -224.499978,0 0,-24.5 0,-24.5 199.999978,0 200,0 0,-25.5 0,-25.5 -225.5,0 -225.499978,0 0,75.5 0,75.5 325.499978,0 325.5,0 0,-25.5 0,-25.5 -50,0 -50,0 0,-224.5 0,-224.49998 100,0 100,0 0,-175.5 0,-175.500002 -75.5,0 -75.5,0 0,125.500002 0,125.5 25.5,0 25.5,0 0,-100 0,-100 24.5,0 24.5,0 0,124.5 0,124.5 -74.5,0 -74.5,0 0,-174.5 0,-174.50000214 124.5,0 124.5,0 0,224.50000214 0,224.5 -100,0 -100,0 0,175.49998 0,175.5 50,0 50,0 0,50 0,50 50,0 50,0 0,24.5 0,24.5 -424.5,0 -424.499978,0 0,-124.5 0,-124.5 249.999978,0 250,0 0,-36 0,-36 -7,0 -7,0 0,-4 0,-4 7,0 7,0 0,-145.99998 0,-146 -7,0 -7,0 0,-4 0,-4 7,0 7,0 0,-185.5 0,-185.500002 -275.5,0 -275.49998,0 0,25.5 0,25.49999986 200.000002,0 199.999978,0 0,124.50000214 0,124.5 -24.5,0 -24.5,0 0,-100 0,-100.000002 -75.5,0 -75.499978,0 0,50 0,50.000002 -10.5,0 -10.5,0 0,6.5 0,6.5 -4,0 -4,0 0,-6.5 0,-6.5 -10,0 -10,0 0,-50.000002 0,-50 -75.5,0 -75.500002,0 0,85.500002 0,85.5 6.5,0 6.5,0 0,4 0,4 -6.5,0 -6.5,0 0,36 0,36 100.000002,0 100,0 0,24.5 0,24.5 -100,0 -100.000002,0 0,325.49998 0,325.49997 475.49998,0 475.5,0 0,-75.49997 z m -899.999978,-400 0,-124.49998 74.5,0 74.5,0 0,74.5 0,74.49998 -24.5,0 -24.5,0 0,-50 0,-49.99998 -25.5,0 -25.5,0 0,75.49998 0,75.5 75.5,0 75.499998,0 0,-50 0,-50 10,0 9.99998,0 0,-6.99998 0,-7 4,0 4,0 0,7 0,6.99998 10.5,0 10.5,0 0,50 0,50 100,0 100,0 0,10 0,10 6.5,0 6.5,0 0,4 0,4 -6.5,0 -6.5,0 0,10.5 0,10.5 -224.5,0 -224.499978,0 0,-124.5 z m 219.999978,-68.99998 0,-6.5 -9.99998,0 -10,0 0,-100 0,-100 -99.999998,0 -100,0 0,-10.5 0,-10.5 -7,0 -7,0 0,-4 0,-4 7,0 7,0 0,-10 0,-10 60,0 60,0 0,-7 0,-7 4,0 4,0 0,7 0,7 36,0 35.999998,0 0,-50 0,-50 24.49998,0 24.5,0 0,100 0,100 75.5,0 75.5,0 0,-150 0,-150.00000214 24.5,0 24.5,0 0,160.00000214 0,160 6.5,0 6.5,0 0,4 0,4 -6.5,0 -6.5,0 0,10.5 0,10.5 -100,0 -100,0 0,50 0,50 -10.5,0 -10.5,0 0,6.5 0,6.5 -4,0 -4,0 0,-6.5 z"
       id="path3362"
       inkscape:connector-curvature="0" />
  </g>
</svg>
